<svg width="23" height="23" viewBox="0 0 23 23" fill="none" xmlns="http://www.w3.org/2000/svg">
<rect width="23" height="23" fill="#F5F5F5"/>
<g id="04_&#234;&#179;&#181;&#236;&#156;&#160;&#237;&#142;&#152;&#236;&#157;&#180;&#236;&#167;&#128;_&#236;&#153;&#132;&#236;&#132;&#177;_&#235;&#179;&#184;&#236;&#157;&#184;">
<rect width="1920" height="1514" transform="translate(-1366 -24)" fill="#E4EDF0"/>
<g id="&#234;&#179;&#181;&#236;&#156;&#160;&#237;&#142;&#152;&#236;&#157;&#180;&#236;&#167;&#128; &#236;&#131;&#129;&#235;&#139;&#168;">
<rect id="Rectangle 1327" x="-1366" y="-24" width="1920" height="70" fill="white"/>
<g id="Frame 353">
<g id="more-vertical">
<path id="Vector" d="M11.0209 11.4993C11.2855 11.4993 11.5 11.2848 11.5 11.0202C11.5 10.7555 11.2855 10.541 11.0209 10.541C10.7562 10.541 10.5417 10.7555 10.5417 11.0202C10.5417 11.2848 10.7562 11.4993 11.0209 11.4993Z" stroke="#888888" stroke-linecap="round" stroke-linejoin="round"/>
<path id="Vector_2" d="M11.0209 4.79232C11.2855 4.79232 11.5 4.57779 11.5 4.31315C11.5 4.04851 11.2855 3.83398 11.0209 3.83398C10.7562 3.83398 10.5417 4.04851 10.5417 4.31315C10.5417 4.57779 10.7562 4.79232 11.0209 4.79232Z" stroke="#888888" stroke-linecap="round" stroke-linejoin="round"/>
<path id="Vector_3" d="M11.0209 18.2083C11.2855 18.2083 11.5 17.9938 11.5 17.7292C11.5 17.4645 11.2855 17.25 11.0209 17.25C10.7562 17.25 10.5417 17.4645 10.5417 17.7292C10.5417 17.9938 10.7562 18.2083 11.0209 18.2083Z" stroke="#888888" stroke-linecap="round" stroke-linejoin="round"/>
</g>
<rect x="-4.5" y="-4.5" width="31" height="31" rx="1.5" stroke="#888888"/>
</g>
</g>
</g>
</svg>
