<svg width="22" height="22" viewBox="0 0 22 22" fill="none" xmlns="http://www.w3.org/2000/svg">
<path d="M8.5 19L8 18H10H14L13.5 19L11.5 20H10L8.5 19Z" fill="#2493FB"/>
<path d="M11.0184 2.66797C7.98419 2.66797 5.51835 5.1338 5.51835 8.16797V10.8171C5.51835 11.3763 5.28002 12.2288 4.99585 12.7055L3.94169 14.4563C3.29085 15.538 3.74002 16.7388 4.93169 17.1421C8.88252 18.4621 13.145 18.4621 17.0959 17.1421C18.205 16.7755 18.6909 15.4646 18.0859 14.4563L17.0317 12.7055C16.7567 12.2288 16.5184 11.3763 16.5184 10.8171V8.16797C16.5184 5.14297 14.0434 2.66797 11.0184 2.66797Z" stroke="#888888" stroke-miterlimit="10" stroke-linecap="round"/>
<path d="M14 18C14 19.1 12.65 20 11 20C10.18 20 9.42 19.7733 8.88 19.4133C8.34 19.0533 8 18.5467 8 18" stroke="#888888" stroke-miterlimit="10"/>
<path d="M12.7139 2.9343C12.4298 2.8518 12.1364 2.78763 11.8339 2.75096C10.9539 2.64096 10.1106 2.70513 9.32227 2.9343C9.5881 2.25596 10.2481 1.7793 11.0181 1.7793C11.7881 1.7793 12.4481 2.25596 12.7139 2.9343Z" stroke="#2493FB" stroke-miterlimit="10" stroke-linecap="round" stroke-linejoin="round"/>
</svg>
