<svg width="22" height="22" viewBox="0 0 22 22" fill="none" xmlns="http://www.w3.org/2000/svg">
<path d="M3 5L3.5 4L6.5 3.5L11 3H15L17.5 3.5L19 4.5L16.5 7.5L14.5 9.5L12 11H10L7.5 9.5L5.5 7.5L4.5 6L3 5Z" fill="#2493FB"/>
<path d="M15.5833 18.7923H6.41665C3.66665 18.7923 1.83331 17.4173 1.83331 14.209V7.79232C1.83331 4.58398 3.66665 3.20898 6.41665 3.20898H15.5833C18.3333 3.20898 20.1666 4.58398 20.1666 7.79232V14.209C20.1666 17.4173 18.3333 18.7923 15.5833 18.7923Z" stroke="#888888" stroke-miterlimit="10" stroke-linecap="round" stroke-linejoin="round"/>
<path d="M18.7916 5.04102L14.0855 9.73249C12.375 11.4577 9.59747 11.4216 7.89797 9.73249L3.20831 5.04102" stroke="#888888" stroke-miterlimit="10" stroke-linecap="round" stroke-linejoin="round"/>
</svg>
