<svg width="26" height="26" viewBox="0 0 26 26" fill="none" xmlns="http://www.w3.org/2000/svg">
<circle cx="13" cy="13" r="13" fill="#2D2C38"/>
<path d="M10.9997 19.6667H14.9997C18.333 19.6667 19.6663 18.3334 19.6663 15V11C19.6663 7.66671 18.333 6.33337 14.9997 6.33337H10.9997C7.66634 6.33337 6.33301 7.66671 6.33301 11V15C6.33301 18.3334 7.66634 19.6667 10.9997 19.6667Z" stroke="white" stroke-linecap="round" stroke-linejoin="round"/>
<path d="M11.0003 11.6667C11.7367 11.6667 12.3337 11.0697 12.3337 10.3333C12.3337 9.59695 11.7367 9 11.0003 9C10.2639 9 9.66699 9.59695 9.66699 10.3333C9.66699 11.0697 10.2639 11.6667 11.0003 11.6667Z" stroke="white" stroke-linecap="round" stroke-linejoin="round"/>
<path d="M6.78027 17.6333L10.0669 15.4266C10.5936 15.0733 11.3536 15.1133 11.8269 15.52L12.0469 15.7133C12.5669 16.16 13.4069 16.16 13.9269 15.7133L16.7003 13.3333C17.2203 12.8866 18.0603 12.8866 18.5803 13.3333L19.6669 14.2666" stroke="white" stroke-linecap="round" stroke-linejoin="round"/>
</svg>
