<svg width="21" height="21" viewBox="0 0 21 21" fill="none" xmlns="http://www.w3.org/2000/svg">
<path d="M18.9527 9.13495L18.0952 12.7924C17.3602 15.9512 15.9077 17.2287 13.1777 16.9662C12.7402 16.9312 12.2677 16.8524 11.7602 16.7299L10.2902 16.3799C6.64141 15.5137 5.51266 13.7112 6.37016 10.0537L7.22766 6.38745C7.40266 5.6437 7.61266 4.9962 7.87516 4.46245C8.89891 2.34495 10.6402 1.7762 13.5627 2.46745L15.0239 2.8087C18.6902 3.6662 19.8102 5.47745 18.9527 9.13495Z" stroke="#2D2C38" stroke-linecap="round" stroke-linejoin="round"/>
<path d="M13.1771 16.9662C12.6346 17.3337 11.9521 17.6399 11.1208 17.9112L9.73832 18.3662C6.26457 19.4862 4.43582 18.5499 3.30707 15.0762L2.18707 11.6199C1.06707 8.14615 1.99457 6.30865 5.46832 5.18865L6.85082 4.73365C7.20957 4.6199 7.55082 4.52365 7.87457 4.4624C7.61207 4.99615 7.40207 5.64365 7.22707 6.3874L6.36957 10.0537C5.51207 13.7112 6.64082 15.5137 10.2896 16.3799L11.7596 16.7299C12.2671 16.8524 12.7396 16.9312 13.1771 16.9662Z" fill="#2493FB" stroke="#2D2C38" stroke-linecap="round" stroke-linejoin="round"/>
<path d="M11.0596 7.46387L15.3033 8.54012" stroke="#2D2C38" stroke-linecap="round" stroke-linejoin="round"/>
<path d="M10.2021 10.8501L12.7396 11.4976" stroke="#2D2C38" stroke-linecap="round" stroke-linejoin="round"/>
</svg>
