<svg width="21" height="21" viewBox="0 0 21 21" fill="none" xmlns="http://www.w3.org/2000/svg">
<path d="M11.305 1.97749L17.0013 5.04874C17.6663 5.40749 17.6663 6.43124 17.0013 6.78999L11.305 9.86124C10.7975 10.1325 10.2025 10.1325 9.695 9.86124L3.99875 6.78999C3.33375 6.43124 3.33375 5.40749 3.99875 5.04874L9.695 1.97749C10.2025 1.70624 10.7975 1.70624 11.305 1.97749Z" stroke="#2D2C38" stroke-linecap="round" stroke-linejoin="round"/>
<path d="M3.15875 8.86372L8.4525 11.515C9.10875 11.8475 9.52875 12.5212 9.52875 13.2562V18.2612C9.52875 18.9875 8.7675 19.4512 8.12 19.1275L2.82625 16.4762C2.17 16.1437 1.75 15.47 1.75 14.735V9.72997C1.75 9.00372 2.51125 8.53997 3.15875 8.86372Z" stroke="#2D2C38" stroke-linecap="round" stroke-linejoin="round"/>
<path d="M17.8417 8.86372L12.5479 11.515C11.8917 11.8475 11.4717 12.5212 11.4717 13.2562V18.2612C11.4717 18.9875 12.2329 19.4512 12.8804 19.1275L18.1742 16.4762C18.8304 16.1437 19.2504 15.47 19.2504 14.735V9.72997C19.2504 9.00372 18.4892 8.53997 17.8417 8.86372Z" fill="#2493FB" stroke="#2D2C38" stroke-linecap="round" stroke-linejoin="round"/>
</svg>
