<svg width="24" height="24" viewBox="0 0 24 24" fill="none" xmlns="http://www.w3.org/2000/svg">
<path d="M19.1487 14.4251L18.1748 12.8083C17.9703 12.448 17.7852 11.7662 17.7852 11.3669V8.90277C17.7852 6.61397 16.4411 4.63683 14.503 3.71157C13.9965 2.81553 13.0615 2.26038 11.9902 2.26038C10.9285 2.26038 9.97406 2.83501 9.4676 3.74079C7.56838 4.68553 6.25354 6.64319 6.25354 8.90277V11.3669C6.25354 11.7662 6.06849 12.448 5.86396 12.7986L4.88026 14.4251C4.49067 15.0777 4.40302 15.7984 4.64651 16.4607C4.88026 17.1132 5.43541 17.6197 6.15614 17.8632C8.04562 18.506 10.0325 18.8177 12.0194 18.8177C14.0062 18.8177 15.9931 18.506 17.8826 17.8729C18.5644 17.6489 19.0903 17.1327 19.3435 16.4607C19.5968 15.7887 19.5286 15.0484 19.1487 14.4251Z" fill="#2D2C38"/>
<path d="M14.7563 19.8014C14.3472 20.9312 13.2661 21.7395 12 21.7395C11.2306 21.7395 10.4709 21.4279 9.93519 20.8727C9.62352 20.5805 9.38977 20.1909 9.25342 19.7916C9.38003 19.8111 9.50665 19.8208 9.643 19.8403C9.86701 19.8695 10.1008 19.8988 10.3345 19.9182C10.8897 19.9669 11.4546 19.9962 12.0195 19.9962C12.5746 19.9962 13.1298 19.9669 13.6752 19.9182C13.8797 19.8988 14.0843 19.889 14.279 19.8598C14.4349 19.8403 14.5907 19.8208 14.7563 19.8014Z" fill="#2D2C38"/>
</svg>
