<svg width="60" height="60" viewBox="0 0 60 60" fill="none" xmlns="http://www.w3.org/2000/svg">
<circle cx="30" cy="30" r="30" fill="#FAF9F7"/>
<path d="M27.9434 30.9336C28.3728 31.5077 28.9207 31.9827 29.5499 32.3265C30.1791 32.6703 30.8749 32.8747 31.59 32.9259C32.3052 32.9771 33.0229 32.8739 33.6947 32.6233C34.3665 32.3728 34.9765 31.9806 35.4834 31.4736L38.4834 28.4736C39.3942 27.5305 39.8981 26.2675 39.8867 24.9566C39.8753 23.6456 39.3495 22.3915 38.4225 21.4645C37.4954 20.5374 36.2413 20.0116 34.9304 20.0002C33.6194 19.9888 32.3564 20.4928 31.4134 21.4036L29.6934 23.1136" stroke="#2D2C38" stroke-width="2.5" stroke-linecap="round" stroke-linejoin="round"/>
<path d="M31.9436 28.9328C31.5141 28.3587 30.9662 27.8837 30.337 27.5399C29.7078 27.1961 29.0121 26.9917 28.2969 26.9405C27.5818 26.8893 26.864 26.9925 26.1922 27.2431C25.5205 27.4936 24.9104 27.8858 24.4036 28.3928L21.4036 31.3928C20.4928 32.3359 19.9888 33.5989 20.0002 34.9098C20.0116 36.2208 20.5374 37.4749 21.4645 38.4019C22.3915 39.329 23.6456 39.8548 24.9566 39.8662C26.2675 39.8776 27.5305 39.3736 28.4736 38.4628L30.1836 36.7528" stroke="#2D2C38" stroke-width="2.5" stroke-linecap="round" stroke-linejoin="round"/>
</svg>
