<svg width="60" height="60" viewBox="0 0 60 60" fill="none" xmlns="http://www.w3.org/2000/svg">
<circle cx="30" cy="30" r="30" fill="#FFE812"/>
<path d="M30.0001 16C20.6111 16 13 22.0012 13 29.4039C13 34.1899 16.182 38.3894 20.9685 40.7608C20.7081 41.6588 19.2951 46.5382 19.2389 46.9215C19.2389 46.9215 19.205 47.2095 19.3915 47.3194C19.5781 47.4292 19.7974 47.3439 19.7974 47.3439C20.3323 47.2692 25.9997 43.2882 26.9806 42.597C27.9606 42.7357 28.9696 42.8078 30.0001 42.8078C39.389 42.8078 47.0002 36.8068 47.0002 29.4039C47.0002 22.0012 39.389 16 30.0001 16Z" fill="black"/>
<path d="M20.6015 34.0824C20.0606 34.0824 19.6207 33.6623 19.6207 33.1457V27.3191H18.0904C17.5596 27.3191 17.1279 26.8882 17.1279 26.3588C17.1279 25.8293 17.5598 25.3984 18.0904 25.3984H23.1126C23.6434 25.3984 24.0751 25.8293 24.0751 26.3588C24.0751 26.8882 23.6432 27.3191 23.1126 27.3191H21.5823V33.1457C21.5823 33.6623 21.1424 34.0824 20.6015 34.0824ZM29.2016 34.0696C28.7926 34.0696 28.4797 33.9035 28.3854 33.6364L27.8998 32.365L24.9091 32.3649L24.4231 33.6371C24.3291 33.9037 24.0164 34.0696 23.6074 34.0696C23.3923 34.0698 23.1796 34.0237 22.984 33.9343C22.7136 33.8096 22.4537 33.4666 22.7515 32.5416L25.0975 26.3666C25.2628 25.897 25.7648 25.4131 26.4036 25.3986C27.0442 25.413 27.5462 25.897 27.7118 26.3676L30.0568 32.5398C30.3553 33.4669 30.0954 33.81 29.825 33.9344C29.6293 34.0237 29.4167 34.0698 29.2016 34.0696ZM27.384 30.6278L26.4044 27.8448L25.4248 30.6278H27.384ZM31.6352 33.9393C31.1169 33.9393 30.6953 33.5359 30.6953 33.0403V26.3792C30.6953 25.8383 31.1445 25.3984 31.6965 25.3984C32.2485 25.3984 32.6977 25.8383 32.6977 26.3792V32.1413H34.7819C35.3002 32.1413 35.7218 32.5447 35.7218 33.0403C35.7218 33.5359 35.3002 33.9393 34.7819 33.9393H31.6352ZM37.0841 34.0696C36.5432 34.0696 36.1033 33.6297 36.1033 33.0888V26.3792C36.1033 25.8383 36.5432 25.3984 37.0841 25.3984C37.625 25.3984 38.0648 25.8383 38.0648 26.3792V28.4872L40.8012 25.7509C40.9419 25.6101 41.1353 25.5326 41.3452 25.5326C41.5901 25.5326 41.8359 25.6382 42.0201 25.8223C42.1919 25.9939 42.2944 26.2148 42.3085 26.4441C42.3227 26.6754 42.2457 26.8874 42.0921 27.0412L39.857 29.2759L42.2712 32.4742C42.3492 32.5768 42.4059 32.6939 42.4383 32.8186C42.4706 32.9434 42.4778 33.0733 42.4595 33.2008C42.442 33.3284 42.3994 33.4513 42.3341 33.5624C42.2688 33.6734 42.182 33.7704 42.079 33.8476C41.9094 33.9766 41.7021 34.0461 41.489 34.0456C41.3371 34.0463 41.1871 34.0114 41.051 33.9437C40.915 33.876 40.7966 33.7774 40.7056 33.6557L38.4055 30.6081L38.0652 30.9485V33.0884C38.0649 33.3485 37.9614 33.5979 37.7775 33.7818C37.5936 33.9658 37.3442 34.0693 37.0841 34.0696Z" fill="#FFE812"/>
</svg>
